Sans_opsz9.ufo
<glyph name="dollar" format="2">
  <advance width="513"/>
  <unicode hex="0024"/>
  <outline>
    <contour>
      <point x="288" y="636" type="line"/>
      <point x="347" y="630"/>
      <point x="389" y="608"/>
      <point x="426" y="579" type="curve"/>
      <point x="439" y="648" type="line"/>
      <point x="385" y="687"/>
      <point x="337" y="700"/>
      <point x="288" y="704" type="curve"/>
      <point x="288" y="750" type="line"/>
      <point x="226" y="750" type="line"/>
      <point x="226" y="703" type="line"/>
      <point x="130" y="688"/>
      <point x="57" y="608"/>
      <point x="57" y="511" type="curve" smooth="yes"/>
      <point x="57" y="444"/>
      <point x="98" y="345"/>
      <point x="226" y="319" type="curve"/>
      <point x="226" y="59" type="line"/>
      <point x="142" y="67"/>
      <point x="83" y="110"/>
      <point x="59" y="131" type="curve"/>
      <point x="46" y="59" type="line"/>
      <point x="109" y="12"/>
      <point x="174" y="-5"/>
      <point x="226" y="-10" type="curve"/>
      <point x="226" y="-56" type="line"/>
      <point x="288" y="-56" type="line"/>
      <point x="288" y="-8" type="line"/>
      <point x="393" y="10"/>
      <point x="456" y="102"/>
      <point x="456" y="197" type="curve" smooth="yes"/>
      <point x="456" y="276"/>
      <point x="408" y="378"/>
      <point x="288" y="402" type="curve"/>
    </contour>
    <contour>
      <point x="226" y="418" type="line"/>
      <point x="168" y="432"/>
      <point x="135" y="478"/>
      <point x="135" y="526" type="curve" smooth="yes"/>
      <point x="135" y="563"/>
      <point x="158" y="617"/>
      <point x="226" y="633" type="curve"/>
    </contour>
    <contour>
      <point x="288" y="304" type="line"/>
      <point x="340" y="290"/>
      <point x="378" y="241"/>
      <point x="378" y="183" type="curve" smooth="yes"/>
      <point x="378" y="132"/>
      <point x="348" y="79"/>
      <point x="288" y="61" type="curve"/>
    </contour>
  </outline>
</glyph>
<glyph name="percent" format="2">
  <advance width="856"/>
  <unicode hex="0025"/>
  <outline>
    <contour>
      <point x="671" y="710" type="line" smooth="yes"/>
      <point x="678" y="721"/>
      <point x="678" y="726"/>
      <point x="678" y="728" type="curve" smooth="yes"/>
      <point x="678" y="742"/>
      <point x="666" y="750"/>
      <point x="657" y="750" type="curve" smooth="yes"/>
      <point x="644" y="750"/>
      <point x="639" y="741"/>
      <point x="634" y="733" type="curve" smooth="yes"/>
      <point x="189" y="-14" type="line" smooth="yes"/>
      <point x="181" y="-27"/>
      <point x="180" y="-29"/>
      <point x="180" y="-34" type="curve" smooth="yes"/>
      <point x="180" y="-47"/>
      <point x="190" y="-56"/>
      <point x="202" y="-56" type="curve" smooth="yes"/>
      <point x="214" y="-56"/>
      <point x="219" y="-47"/>
      <point x="224" y="-39" type="curve" smooth="yes"/>
    </contour>
    <contour>
      <point x="798" y="145" type="curve" smooth="yes"/>
      <point x="798" y="263"/>
      <point x="730" y="347"/>
      <point x="657" y="347" type="curve" smooth="yes"/>
      <point x="582" y="347"/>
      <point x="513" y="262"/>
      <point x="513" y="146" type="curve" smooth="yes"/>
      <point x="513" y="27"/>
      <point x="583" y="-56"/>
      <point x="657" y="-56" type="curve" smooth="yes"/>
      <point x="731" y="-56"/>
      <point x="798" y="30"/>
    </contour>
    <contour>
      <point x="657" y="9" type="curve" smooth="yes"/>
      <point x="644" y="9"/>
      <point x="592" y="14"/>
      <point x="592" y="145" type="curve" smooth="yes"/>
      <point x="592" y="275"/>
      <point x="642" y="282"/>
      <point x="657" y="282" type="curve" smooth="yes"/>
      <point x="696" y="282"/>
      <point x="725" y="218"/>
      <point x="725" y="146" type="curve" smooth="yes"/>
      <point x="725" y="70"/>
      <point x="695" y="9"/>
    </contour>
    <contour>
      <point x="342" y="548" type="curve" smooth="yes"/>
      <point x="342" y="666"/>
      <point x="274" y="750"/>
      <point x="201" y="750" type="curve" smooth="yes"/>
      <point x="126" y="750"/>
      <point x="57" y="665"/>
      <point x="57" y="549" type="curve" smooth="yes"/>
      <point x="57" y="430"/>
      <point x="127" y="347"/>
      <point x="201" y="347" type="curve" smooth="yes"/>
      <point x="275" y="347"/>
      <point x="342" y="433"/>
    </contour>
    <contour>
      <point x="201" y="412" type="curve" smooth="yes"/>
      <point x="188" y="412"/>
      <point x="136" y="417"/>
      <point x="136" y="548" type="curve" smooth="yes"/>
      <point x="136" y="678"/>
      <point x="186" y="685"/>
      <point x="201" y="685" type="curve" smooth="yes"/>
      <point x="240" y="685"/>
      <point x="269" y="621"/>
      <point x="269" y="549" type="curve" smooth="yes"/>
      <point x="269" y="473"/>
      <point x="239" y="412"/>
    </contour>
  </outline>
</glyph>
<glyph name="hyphen" format="2">
  <advance width="342"/>
  <unicode hex="002D"/>
  <outline>
    <contour>
      <point x="285" y="191" type="line"/>
      <point x="285" y="253" type="line"/>
      <point x="11" y="253" type="line"/>
      <point x="11" y="191" type="line"/>
    </contour>
  </outline>
</glyph>
<glyph name="one" format="2">
  <advance width="513"/>
  <unicode hex="0031"/>
  <outline>
    <contour>
      <point x="309" y="676" type="line"/>
      <point x="288" y="676" type="line"/>
      <point x="221" y="611"/>
      <point x="125" y="611"/>
      <point x="90" y="611" type="curve"/>
      <point x="90" y="611"/>
      <point x="90" y="611"/>
      <point x="90" y="611" type="curve"/>
      <point x="90" y="549" type="line"/>
      <point x="118" y="549"/>
      <point x="169" y="549"/>
      <point x="224" y="572" type="curve"/>
      <point x="224" y="62" type="line"/>
      <point x="96" y="62" type="line"/>
      <point x="96" y="0" type="line"/>
      <point x="437" y="0" type="line"/>
      <point x="437" y="62" type="line"/>
      <point x="309" y="62" type="line"/>
    </contour>
  </outline>
</glyph>
<glyph name="two" format="2">
  <advance width="513"/>
  <unicode hex="0032"/>
  <outline>
    <contour>
      <point x="274" y="75" type="line" smooth="yes"/>
      <point x="262" y="75"/>
      <point x="250" y="74"/>
      <point x="238" y="74" type="curve" smooth="yes"/>
      <point x="128" y="74" type="line"/>
      <point x="158" y="103"/>
      <point x="261" y="197"/>
      <point x="292" y="223" type="curve" smooth="yes"/>
      <point x="397" y="309"/>
      <point x="462" y="363"/>
      <point x="462" y="460" type="curve" smooth="yes"/>
      <point x="462" y="575"/>
      <point x="379" y="676"/>
      <point x="243" y="676" type="curve" smooth="yes"/>
      <point x="137" y="676"/>
      <point x="74" y="615"/>
      <point x="43" y="516" type="curve"/>
      <point x="89" y="458" type="line"/>
      <point x="115" y="575"/>
      <point x="167" y="608"/>
      <point x="229" y="608" type="curve" smooth="yes"/>
      <point x="318" y="608"/>
      <point x="374" y="540"/>
      <point x="374" y="458" type="curve" smooth="yes"/>
      <point x="374" y="367"/>
      <point x="310" y="309"/>
      <point x="236" y="243" type="curve" smooth="yes"/>
      <point x="51" y="68" type="line"/>
      <point x="51" y="0" type="line"/>
      <point x="462" y="0" type="line"/>
      <point x="462" y="75" type="line"/>
    </contour>
  </outline>
</glyph>
<glyph name="four" format="2">
  <advance width="513"/>
  <unicode hex="0034"/>
  <outline>
    <contour>
      <point x="384" y="167" type="line"/>
      <point x="484" y="167" type="line"/>
      <point x="484" y="232" type="line"/>
      <point x="384" y="232" type="line"/>
      <point x="384" y="654" type="line"/>
      <point x="287" y="654" type="line"/>
      <point x="29" y="232" type="line"/>
      <point x="29" y="167" type="line"/>
      <point x="300" y="167" type="line"/>
      <point x="300" y="0" type="line"/>
      <point x="384" y="0" type="line"/>
    </contour>
    <contour>
      <point x="112" y="232" type="line"/>
      <point x="173" y="332" type="line" smooth="yes"/>
      <point x="203" y="383"/>
      <point x="306" y="557"/>
      <point x="306" y="608" type="curve"/>
      <point x="306" y="232" type="line"/>
    </contour>
  </outline>
</glyph>
<glyph name="colon" format="2">
  <advance width="285"/>
  <unicode hex="003A"/>
  <outline>
    <contour>
      <point x="185" y="444" type="line"/>
      <point x="99" y="444" type="line"/>
      <point x="99" y="358" type="line"/>
      <point x="185" y="358" type="line"/>
    </contour>
    <contour>
      <point x="99" y="86" type="line"/>
      <point x="99" y="0" type="line"/>
      <point x="185" y="0" type="line"/>
      <point x="185" y="86" type="line"/>
    </contour>
  </outline>
</glyph>
<glyph name="equal" format="2">
  <advance width="799"/>
  <unicode hex="003D"/>
  <outline>
    <contour>
      <point x="708" y="334" type="line" smooth="yes"/>
      <point x="722" y="334"/>
      <point x="741" y="334"/>
      <point x="741" y="355" type="curve" smooth="yes"/>
      <point x="741" y="377"/>
      <point x="719" y="377"/>
      <point x="704" y="377" type="curve" smooth="yes"/>
      <point x="94" y="377" type="line" smooth="yes"/>
      <point x="79" y="377"/>
      <point x="57" y="377"/>
      <point x="57" y="355" type="curve" smooth="yes"/>
      <point x="57" y="334"/>
      <point x="77" y="334"/>
      <point x="90" y="334" type="curve" smooth="yes"/>
    </contour>
    <contour>
      <point x="704" y="124" type="line" smooth="yes"/>
      <point x="719" y="124"/>
      <point x="741" y="124"/>
      <point x="741" y="146" type="curve" smooth="yes"/>
      <point x="741" y="167"/>
      <point x="722" y="167"/>
      <point x="708" y="167" type="curve" smooth="yes"/>
      <point x="90" y="167" type="line" smooth="yes"/>
      <point x="77" y="167"/>
      <point x="57" y="167"/>
      <point x="57" y="146" type="curve" smooth="yes"/>
      <point x="57" y="124"/>
      <point x="79" y="124"/>
      <point x="94" y="124" type="curve" smooth="yes"/>
    </contour>
  </outline>
</glyph>
<glyph name="A" format="2">
  <advance width="686"/>
  <unicode hex="0041"/>
  <outline>
    <contour>
      <point x="389" y="694" type="line"/>
      <point x="297" y="694" type="line"/>
      <point x="29" y="0" type="line"/>
      <point x="108" y="0" type="line"/>
      <point x="184" y="199" type="line"/>
      <point x="481" y="199" type="line"/>
      <point x="558" y="0" type="line"/>
      <point x="657" y="0" type="line"/>
    </contour>
    <contour>
      <point x="332" y="620" type="line"/>
      <point x="457" y="258" type="line"/>
      <point x="208" y="258" type="line"/>
    </contour>
  </outline>
</glyph>
<glyph name="E" format="2">
  <advance width="617"/>
  <unicode hex="0045"/>
  <outline>
    <contour>
      <point x="530" y="327" type="line"/>
      <point x="530" y="392" type="line"/>
      <point x="191" y="392" type="line"/>
      <point x="191" y="623" type="line"/>
      <point x="229" y="623" type="line" smooth="yes"/>
      <point x="310" y="623"/>
      <point x="392" y="621"/>
      <point x="473" y="621" type="curve" smooth="yes"/>
      <point x="559" y="621" type="line"/>
      <point x="559" y="691" type="line"/>
      <point x="95" y="691" type="line"/>
      <point x="95" y="0" type="line"/>
      <point x="573" y="0" type="line"/>
      <point x="573" y="76" type="line"/>
      <point x="473" y="76" type="line" smooth="yes"/>
      <point x="379" y="76"/>
      <point x="285" y="74"/>
      <point x="191" y="74" type="curve"/>
      <point x="191" y="327" type="line"/>
    </contour>
  </outline>
</glyph>
<glyph name="F" format="2">
  <advance width="588"/>
  <unicode hex="0046"/>
  <outline>
    <contour>
      <point x="95" y="0" type="line"/>
      <point x="191" y="0" type="line"/>
      <point x="191" y="313" type="line"/>
      <point x="502" y="313" type="line"/>
      <point x="502" y="378" type="line"/>
      <point x="191" y="378" type="line"/>
      <point x="191" y="621" type="line"/>
      <point x="545" y="621" type="line"/>
      <point x="545" y="691" type="line"/>
      <point x="95" y="691" type="line"/>
    </contour>
  </outline>
</glyph>
<glyph name="I" format="2">
  <advance width="287"/>
  <unicode hex="0049"/>
  <outline>
    <contour>
      <point x="191" y="694" type="line"/>
      <point x="95" y="694" type="line"/>
      <point x="95" y="0" type="line"/>
      <point x="191" y="0" type="line"/>
    </contour>
  </outline>
</glyph>
<glyph name="J" format="2">
  <advance width="486"/>
  <unicode hex="004A"/>
  <outline>
    <contour>
      <point x="399" y="694" type="line"/>
      <point x="306" y="694" type="line"/>
      <point x="306" y="152" type="line" smooth="yes"/>
      <point x="306" y="135"/>
      <point x="306" y="43"/>
      <point x="187" y="43" type="curve" smooth="yes"/>
      <point x="134" y="43"/>
      <point x="86" y="69"/>
      <point x="57" y="100" type="curve"/>
      <point x="43" y="20" type="line"/>
      <point x="115" y="-16"/>
      <point x="180" y="-22"/>
      <point x="219" y="-22" type="curve" smooth="yes"/>
      <point x="322" y="-22"/>
      <point x="399" y="33"/>
      <point x="399" y="149" type="curve" smooth="yes"/>
    </contour>
  </outline>
</glyph>
<glyph name="K" format="2">
  <advance width="715"/>
  <unicode hex="004B"/>
  <outline>
    <contour>
      <point x="382" y="420" type="line"/>
      <point x="656" y="694" type="line"/>
      <point x="558" y="694" type="line"/>
      <point x="189" y="326" type="line"/>
      <point x="189" y="694" type="line"/>
      <point x="98" y="694" type="line"/>
      <point x="98" y="0" type="line"/>
      <point x="189" y="0" type="line"/>
      <point x="189" y="228" type="line"/>
      <point x="323" y="361" type="line"/>
      <point x="572" y="0" type="line"/>
      <point x="671" y="0" type="line"/>
    </contour>
  </outline>
</glyph>
<glyph name="L" format="2">
  <advance width="560"/>
  <unicode hex="004C"/>
  <outline>
    <contour>
      <point x="191" y="694" type="line"/>
      <point x="95" y="694" type="line"/>
      <point x="95" y="0" type="line"/>
      <point x="516" y="0" type="line"/>
      <point x="516" y="70" type="line"/>
      <point x="472" y="70" type="line" smooth="yes"/>
      <point x="391" y="70"/>
      <point x="310" y="68"/>
      <point x="229" y="68" type="curve" smooth="yes"/>
      <point x="191" y="68" type="line"/>
    </contour>
  </outline>
</glyph>
<glyph name="S" format="2">
  <advance width="570"/>
  <unicode hex="0053"/>
  <outline>
    <contour>
      <point x="244" y="420" type="line" smooth="yes"/>
      <point x="193" y="432"/>
      <point x="142" y="472"/>
      <point x="142" y="530" type="curve" smooth="yes"/>
      <point x="142" y="587"/>
      <point x="197" y="645"/>
      <point x="288" y="645" type="curve" smooth="yes"/>
      <point x="360" y="645"/>
      <point x="410" y="624"/>
      <point x="462" y="580" type="curve"/>
      <point x="478" y="667" type="line"/>
      <point x="428" y="692"/>
      <point x="380" y="716"/>
      <point x="289" y="716" type="curve" smooth="yes"/>
      <point x="147" y="716"/>
      <point x="57" y="617"/>
      <point x="57" y="517" type="curve" smooth="yes"/>
      <point x="57" y="492"/>
      <point x="62" y="452"/>
      <point x="96" y="406" type="curve" smooth="yes"/>
      <point x="142" y="346"/>
      <point x="207" y="331"/>
      <point x="248" y="321" type="curve" smooth="yes"/>
      <point x="262" y="317"/>
      <point x="324" y="302"/>
      <point x="332" y="300" type="curve"/>
      <point x="378" y="286"/>
      <point x="428" y="242"/>
      <point x="428" y="180" type="curve" smooth="yes"/>
      <point x="428" y="114"/>
      <point x="371" y="52"/>
      <point x="282" y="52" type="curve" smooth="yes"/>
      <point x="201" y="52"/>
      <point x="125" y="83"/>
      <point x="62" y="134" type="curve"/>
      <point x="46" y="47" type="line"/>
      <point x="144" y="-14"/>
      <point x="235" y="-22"/>
      <point x="282" y="-22" type="curve" smooth="yes"/>
      <point x="419" y="-22"/>
      <point x="513" y="80"/>
      <point x="513" y="191" type="curve" smooth="yes"/>
      <point x="513" y="304"/>
      <point x="420" y="378"/>
      <point x="345" y="396" type="curve" smooth="yes"/>
    </contour>
  </outline>
</glyph>
<glyph name="T" format="2">
  <advance width="702"/>
  <unicode hex="0054"/>
  <outline>
    <contour>
      <point x="399" y="620" type="line"/>
      <point x="467" y="620"/>
      <point x="536" y="618"/>
      <point x="604" y="618" type="curve" smooth="yes"/>
      <point x="664" y="618" type="line"/>
      <point x="664" y="688" type="line"/>
      <point x="37" y="688" type="line"/>
      <point x="37" y="618" type="line"/>
      <point x="98" y="618" type="line" smooth="yes"/>
      <point x="166" y="618"/>
      <point x="235" y="620"/>
      <point x="303" y="620" type="curve"/>
      <point x="303" y="0" type="line"/>
      <point x="399" y="0" type="line"/>
    </contour>
  </outline>
</glyph>
<glyph name="U" format="2">
  <advance width="706"/>
  <unicode hex="0055"/>
  <outline>
    <contour>
      <point x="611" y="694" type="line"/>
      <point x="528" y="694" type="line"/>
      <point x="528" y="233" type="line" smooth="yes"/>
      <point x="528" y="99"/>
      <point x="441" y="37"/>
      <point x="357" y="37" type="curve" smooth="yes"/>
      <point x="274" y="37"/>
      <point x="191" y="99"/>
      <point x="191" y="232" type="curve" smooth="yes"/>
      <point x="191" y="694" type="line"/>
      <point x="95" y="694" type="line"/>
      <point x="95" y="234" type="line" smooth="yes"/>
      <point x="95" y="85"/>
      <point x="218" y="-22"/>
      <point x="356" y="-22" type="curve" smooth="yes"/>
      <point x="494" y="-22"/>
      <point x="611" y="88"/>
      <point x="611" y="233" type="curve" smooth="yes"/>
    </contour>
  </outline>
</glyph>
<glyph name="V" format="2">
  <advance width="686"/>
  <unicode hex="0056"/>
  <outline>
    <contour>
      <point x="672" y="694" type="line"/>
      <point x="589" y="694" type="line"/>
      <point x="464" y="382" type="line" smooth="yes"/>
      <point x="453" y="355"/>
      <point x="365" y="135"/>
      <point x="352" y="76" type="curve"/>
      <point x="351" y="76" type="line"/>
      <point x="341" y="129"/>
      <point x="262" y="325"/>
      <point x="237" y="388" type="curve" smooth="yes"/>
      <point x="115" y="694" type="line"/>
      <point x="14" y="694" type="line"/>
      <point x="295" y="0" type="line"/>
      <point x="391" y="0" type="line"/>
    </contour>
  </outline>
</glyph>
<glyph name="Y" format="2">
  <advance width="686"/>
  <unicode hex="0059"/>
  <outline>
    <contour>
      <point x="297" y="0" type="line"/>
      <point x="390" y="0" type="line"/>
      <point x="390" y="278" type="line"/>
      <point x="683" y="694" type="line"/>
      <point x="589" y="694" type="line"/>
      <point x="424" y="458" type="line"/>
      <point x="400" y="423"/>
      <point x="377" y="388"/>
      <point x="353" y="353" type="curve"/>
      <point x="331" y="385"/>
      <point x="310" y="418"/>
      <point x="288" y="450" type="curve"/>
      <point x="117" y="694" type="line"/>
      <point x="3" y="694" type="line"/>
      <point x="297" y="278" type="line"/>
    </contour>
  </outline>
</glyph>
<glyph name="Z" format="2">
  <advance width="628"/>
  <unicode hex="005A"/>
  <outline>
    <contour>
      <point x="570" y="651" type="line"/>
      <point x="570" y="694" type="line"/>
      <point x="71" y="694" type="line"/>
      <point x="71" y="627" type="line"/>
      <point x="164" y="627" type="line" smooth="yes"/>
      <point x="250" y="627"/>
      <point x="337" y="629"/>
      <point x="423" y="629" type="curve" smooth="yes"/>
      <point x="447" y="629" type="line"/>
      <point x="57" y="45" type="line"/>
      <point x="57" y="0" type="line"/>
      <point x="576" y="0" type="line"/>
      <point x="576" y="70" type="line"/>
      <point x="478" y="70" type="line" smooth="yes"/>
      <point x="389" y="70"/>
      <point x="298" y="68"/>
      <point x="209" y="68" type="curve" smooth="yes"/>
      <point x="180" y="68" type="line"/>
    </contour>
  </outline>
</glyph>
<glyph name="b" format="2">
  <advance width="530"/>
  <unicode hex="0062"/>
  <outline>
    <contour>
      <point x="163" y="694" type="line"/>
      <point x="83" y="694" type="line"/>
      <point x="83" y="0" type="line"/>
      <point x="166" y="0" type="line"/>
      <point x="166" y="47" type="line"/>
      <point x="179" y="33"/>
      <point x="230" y="-11"/>
      <point x="304" y="-11" type="curve" smooth="yes"/>
      <point x="408" y="-11"/>
      <point x="494" y="90"/>
      <point x="494" y="223" type="curve" smooth="yes"/>
      <point x="494" y="344"/>
      <point x="428" y="455"/>
      <point x="330" y="455" type="curve" smooth="yes"/>
      <point x="303" y="455"/>
      <point x="231" y="450"/>
      <point x="163" y="397" type="curve"/>
    </contour>
    <contour>
      <point x="166" y="334" type="line"/>
      <point x="181" y="355"/>
      <point x="217" y="390"/>
      <point x="274" y="390" type="curve" smooth="yes"/>
      <point x="334" y="390"/>
      <point x="411" y="348"/>
      <point x="411" y="223" type="curve" smooth="yes"/>
      <point x="411" y="94"/>
      <point x="325" y="54"/>
      <point x="264" y="54" type="curve" smooth="yes"/>
      <point x="200" y="54"/>
      <point x="171" y="107"/>
      <point x="166" y="116" type="curve"/>
    </contour>
  </outline>
</glyph>
<glyph name="c" format="2">
  <advance width="456"/>
  <unicode hex="0063"/>
  <outline>
    <contour>
      <point x="421" y="108" type="line"/>
      <point x="373" y="75"/>
      <point x="320" y="57"/>
      <point x="260" y="57" type="curve" smooth="yes"/>
      <point x="175" y="57"/>
      <point x="119" y="128"/>
      <point x="119" y="223" type="curve" smooth="yes"/>
      <point x="119" y="300"/>
      <point x="157" y="393"/>
      <point x="264" y="393" type="curve" smooth="yes"/>
      <point x="327" y="393"/>
      <point x="359" y="381"/>
      <point x="409" y="347" type="curve"/>
      <point x="422" y="417" type="line"/>
      <point x="366" y="449"/>
      <point x="335" y="461"/>
      <point x="263" y="461" type="curve" smooth="yes"/>
      <point x="121" y="461"/>
      <point x="36" y="341"/>
      <point x="36" y="222" type="curve" smooth="yes"/>
      <point x="36" y="98"/>
      <point x="129" y="-11"/>
      <point x="259" y="-11" type="curve" smooth="yes"/>
      <point x="329" y="-11"/>
      <point x="382" y="10"/>
      <point x="427" y="37" type="curve"/>
    </contour>
  </outline>
</glyph>
<glyph name="g" format="2">
  <advance width="513"/>
  <unicode hex="0067"/>
  <outline>
    <contour>
      <point x="487" y="455" type="line"/>
      <point x="468" y="455"/>
      <point x="401" y="455"/>
      <point x="327" y="423" type="curve"/>
      <point x="312" y="434"/>
      <point x="275" y="455"/>
      <point x="228" y="455" type="curve" smooth="yes"/>
      <point x="136" y="455"/>
      <point x="63" y="380"/>
      <point x="63" y="292" type="curve" smooth="yes"/>
      <point x="63" y="267"/>
      <point x="69" y="230"/>
      <point x="97" y="191" type="curve"/>
      <point x="78" y="166"/>
      <point x="68" y="136"/>
      <point x="68" y="108" type="curve" smooth="yes"/>
      <point x="68" y="80"/>
      <point x="78" y="52"/>
      <point x="93" y="33" type="curve"/>
      <point x="41" y="0"/>
      <point x="29" y="-43"/>
      <point x="29" y="-71" type="curve" smooth="yes"/>
      <point x="29" y="-144"/>
      <point x="127" y="-206"/>
      <point x="256" y="-206" type="curve" smooth="yes"/>
      <point x="385" y="-206"/>
      <point x="484" y="-145"/>
      <point x="484" y="-70" type="curve" smooth="yes"/>
      <point x="484" y="69"/>
      <point x="318" y="71"/>
      <point x="274" y="71" type="curve" smooth="yes"/>
      <point x="182" y="71" type="line" smooth="yes"/>
      <point x="169" y="71"/>
      <point x="124" y="71"/>
      <point x="124" y="123" type="curve" smooth="yes"/>
      <point x="124" y="143"/>
      <point x="128" y="149"/>
      <point x="133" y="157" type="curve"/>
      <point x="160" y="139"/>
      <point x="194" y="128"/>
      <point x="228" y="128" type="curve" smooth="yes"/>
      <point x="320" y="128"/>
      <point x="393" y="203"/>
      <point x="393" y="291" type="curve" smooth="yes"/>
      <point x="393" y="342"/>
      <point x="367" y="382"/>
      <point x="361" y="388" type="curve"/>
      <point x="374" y="392"/>
      <point x="412" y="392"/>
      <point x="425" y="392" type="curve" smooth="yes"/>
      <point x="433" y="392"/>
      <point x="470" y="392"/>
      <point x="499" y="388" type="curve"/>
    </contour>
    <contour>
      <point x="228" y="188" type="curve" smooth="yes"/>
      <point x="182" y="188"/>
      <point x="137" y="217"/>
      <point x="137" y="291" type="curve" smooth="yes"/>
      <point x="137" y="372"/>
      <point x="188" y="395"/>
      <point x="228" y="395" type="curve" smooth="yes"/>
      <point x="274" y="395"/>
      <point x="319" y="366"/>
      <point x="319" y="292" type="curve" smooth="yes"/>
      <point x="319" y="211"/>
      <point x="268" y="188"/>
    </contour>
    <contour>
      <point x="274" y="-5" type="line" smooth="yes"/>
      <point x="295" y="-5"/>
      <point x="410" y="-5"/>
      <point x="410" y="-71" type="curve" smooth="yes"/>
      <point x="410" y="-115"/>
      <point x="337" y="-146"/>
      <point x="257" y="-146" type="curve" smooth="yes"/>
      <point x="179" y="-146"/>
      <point x="103" y="-117"/>
      <point x="103" y="-70" type="curve" smooth="yes"/>
      <point x="103" y="-68"/>
      <point x="103" y="-5"/>
      <point x="180" y="-5" type="curve" smooth="yes"/>
    </contour>
  </outline>
</glyph>
<glyph name="k" format="2">
  <advance width="502"/>
  <unicode hex="006B"/>
  <outline>
    <contour>
      <point x="289" y="272" type="line"/>
      <point x="461" y="444" type="line"/>
      <point x="366" y="444" type="line"/>
      <point x="161" y="238" type="line"/>
      <point x="161" y="694" type="line"/>
      <point x="85" y="694" type="line"/>
      <point x="85" y="0" type="line"/>
      <point x="158" y="0" type="line"/>
      <point x="158" y="142" type="line"/>
      <point x="239" y="222" type="line"/>
      <point x="398" y="0" type="line"/>
      <point x="484" y="0" type="line"/>
    </contour>
  </outline>
</glyph>
<glyph name="l" format="2">
  <advance width="245"/>
  <unicode hex="006C"/>
  <outline>
    <contour>
      <point x="162" y="694" type="line"/>
      <point x="82" y="694" type="line"/>
      <point x="82" y="0" type="line"/>
      <point x="162" y="0" type="line"/>
    </contour>
  </outline>
</glyph>
<glyph name="m" format="2">
  <advance width="816"/>
  <unicode hex="006D"/>
  <outline>
    <contour>
      <point x="734" y="297" type="line" smooth="yes"/>
      <point x="734" y="371"/>
      <point x="714" y="455"/>
      <point x="593" y="455" type="curve" smooth="yes"/>
      <point x="509" y="455"/>
      <point x="462" y="404"/>
      <point x="438" y="373" type="curve"/>
      <point x="431" y="393"/>
      <point x="410" y="455"/>
      <point x="308" y="455" type="curve" smooth="yes"/>
      <point x="229" y="455"/>
      <point x="181" y="409"/>
      <point x="158" y="379" type="curve"/>
      <point x="158" y="450" type="line"/>
      <point x="81" y="450" type="line"/>
      <point x="81" y="0" type="line"/>
      <point x="164" y="0" type="line"/>
      <point x="164" y="244" type="line" smooth="yes"/>
      <point x="164" y="310"/>
      <point x="190" y="390"/>
      <point x="266" y="390" type="curve" smooth="yes"/>
      <point x="366" y="390"/>
      <point x="366" y="319"/>
      <point x="366" y="290" type="curve" smooth="yes"/>
      <point x="366" y="0" type="line"/>
      <point x="449" y="0" type="line"/>
      <point x="449" y="244" type="line" smooth="yes"/>
      <point x="449" y="310"/>
      <point x="475" y="390"/>
      <point x="551" y="390" type="curve" smooth="yes"/>
      <point x="651" y="390"/>
      <point x="651" y="319"/>
      <point x="651" y="290" type="curve" smooth="yes"/>
      <point x="651" y="0" type="line"/>
      <point x="734" y="0" type="line"/>
    </contour>
  </outline>
</glyph>
<glyph name="s" format="2">
  <advance width="393"/>
  <unicode hex="0073"/>
  <outline>
    <contour>
      <point x="353" y="429" type="line"/>
      <point x="291" y="457"/>
      <point x="245" y="461"/>
      <point x="204" y="461" type="curve" smooth="yes"/>
      <point x="181" y="461"/>
      <point x="34" y="461"/>
      <point x="34" y="329" type="curve" smooth="yes"/>
      <point x="34" y="281"/>
      <point x="63" y="251"/>
      <point x="74" y="240" type="curve"/>
      <point x="112" y="207"/>
      <point x="138" y="202"/>
      <point x="206" y="189" type="curve" smooth="yes"/>
      <point x="238" y="183"/>
      <point x="295" y="172"/>
      <point x="295" y="121" type="curve" smooth="yes"/>
      <point x="295" y="56"/>
      <point x="214" y="56"/>
      <point x="201" y="56" type="curve" smooth="yes"/>
      <point x="142" y="56"/>
      <point x="85" y="76"/>
      <point x="42" y="106" type="curve"/>
      <point x="29" y="33" type="line"/>
      <point x="89" y="1"/>
      <point x="150" y="-11"/>
      <point x="201" y="-11" type="curve" smooth="yes"/>
      <point x="266" y="-11"/>
      <point x="370" y="10"/>
      <point x="370" y="129" type="curve" smooth="yes"/>
      <point x="370" y="164"/>
      <point x="356" y="199"/>
      <point x="321" y="229" type="curve" smooth="yes"/>
      <point x="287" y="258"/>
      <point x="257" y="264"/>
      <point x="195" y="276" type="curve" smooth="yes"/>
      <point x="159" y="283"/>
      <point x="109" y="292"/>
      <point x="109" y="339" type="curve" smooth="yes"/>
      <point x="109" y="398"/>
      <point x="180" y="398"/>
      <point x="195" y="398" type="curve" smooth="yes"/>
      <point x="268" y="398"/>
      <point x="311" y="375"/>
      <point x="340" y="359" type="curve"/>
    </contour>
  </outline>
</glyph>
<glyph name="w" format="2">
  <advance width="702"/>
  <unicode hex="0077"/>
  <outline>
    <contour>
      <point x="687" y="444" type="line"/>
      <point x="610" y="444" type="line"/>
      <point x="587" y="372"/>
      <point x="505" y="116"/>
      <point x="498" y="56" type="curve"/>
      <point x="497" y="56" type="line"/>
      <point x="491" y="98"/>
      <point x="470" y="166"/>
      <point x="453" y="222" type="curve" smooth="yes"/>
      <point x="384" y="444" type="line"/>
      <point x="310" y="444" type="line"/>
      <point x="278" y="346"/>
      <point x="207" y="122"/>
      <point x="203" y="59" type="curve"/>
      <point x="202" y="59" type="line"/>
      <point x="199" y="96"/>
      <point x="173" y="187"/>
      <point x="154" y="249" type="curve" smooth="yes"/>
      <point x="94" y="444" type="line"/>
      <point x="14" y="444" type="line"/>
      <point x="155" y="0" type="line"/>
      <point x="238" y="0" type="line"/>
      <point x="255" y="55"/>
      <point x="292" y="170"/>
      <point x="298" y="193" type="curve" smooth="yes"/>
      <point x="319" y="264"/>
      <point x="343" y="344"/>
      <point x="346" y="387" type="curve"/>
      <point x="347" y="387" type="line"/>
      <point x="349" y="368"/>
      <point x="358" y="329"/>
      <point x="360" y="319" type="curve" smooth="yes"/>
      <point x="371" y="275"/>
      <point x="371" y="273"/>
      <point x="379" y="247" type="curve" smooth="yes"/>
      <point x="455" y="0" type="line"/>
      <point x="546" y="0" type="line"/>
    </contour>
  </outline>
</glyph>
<glyph name="x" format="2">
  <advance width="473"/>
  <unicode hex="0078"/>
  <outline>
    <contour>
      <point x="268" y="229" type="line"/>
      <point x="456" y="444" type="line"/>
      <point x="369" y="444" type="line"/>
      <point x="234" y="281" type="line"/>
      <point x="93" y="444" type="line"/>
      <point x="6" y="444" type="line"/>
      <point x="199" y="229" type="line"/>
      <point x="0" y="0" type="line"/>
      <point x="87" y="0" type="line"/>
      <point x="234" y="187" type="line"/>
      <point x="385" y="0" type="line"/>
      <point x="473" y="0" type="line"/>
    </contour>
  </outline>
</glyph>
<glyph name="y" format="2">
  <advance width="473"/>
  <unicode hex="0079"/>
  <outline>
    <contour>
      <point x="459" y="444" type="line"/>
      <point x="380" y="444" type="line"/>
      <point x="304" y="262"/>
      <point x="249" y="129"/>
      <point x="244" y="59" type="curve"/>
      <point x="241" y="105"/>
      <point x="199" y="208"/>
      <point x="187" y="237" type="curve" smooth="yes"/>
      <point x="146" y="339"/>
      <point x="129" y="373"/>
      <point x="98" y="444" type="curve"/>
      <point x="14" y="444" type="line"/>
      <point x="214" y="0" type="line"/>
      <point x="177" y="-89" type="line" smooth="yes"/>
      <point x="151" y="-145"/>
      <point x="132" y="-145"/>
      <point x="118" y="-145" type="curve" smooth="yes"/>
      <point x="102" y="-145"/>
      <point x="67" y="-141"/>
      <point x="37" y="-128" type="curve"/>
      <point x="43" y="-197" type="line"/>
      <point x="46" y="-198"/>
      <point x="83" y="-205"/>
      <point x="117" y="-205" type="curve" smooth="yes"/>
      <point x="144" y="-205"/>
      <point x="187" y="-205"/>
      <point x="237" y="-86" type="curve" smooth="yes"/>
    </contour>
  </outline>
</glyph>
<glyph name="z" format="2">
  <advance width="446"/>
  <unicode hex="007A"/>
  <outline>
    <contour>
      <point x="410" y="403" type="line"/>
      <point x="410" y="444" type="line"/>
      <point x="43" y="444" type="line"/>
      <point x="43" y="381" type="line"/>
      <point x="184" y="381" type="line" smooth="yes"/>
      <point x="196" y="381"/>
      <point x="208" y="382"/>
      <point x="220" y="382" type="curve" smooth="yes"/>
      <point x="297" y="382" type="line"/>
      <point x="29" y="43" type="line"/>
      <point x="29" y="0" type="line"/>
      <point x="413" y="0" type="line"/>
      <point x="413" y="66" type="line"/>
      <point x="263" y="66" type="line" smooth="yes"/>
      <point x="251" y="66"/>
      <point x="239" y="65"/>
      <point x="227" y="65" type="curve" smooth="yes"/>
      <point x="143" y="65" type="line"/>
    </contour>
  </outline>
</glyph>
<glyph name="dieresis" format="2">
  <advance width="513"/>
  <unicode hex="00A8"/>
  <outline>
    <contour>
      <point x="202" y="684" type="line"/>
      <point x="112" y="684" type="line"/>
      <point x="112" y="594" type="line"/>
      <point x="202" y="594" type="line"/>
    </contour>
    <contour>
      <point x="401" y="684" type="line"/>
      <point x="311" y="684" type="line"/>
      <point x="311" y="594" type="line"/>
      <point x="401" y="594" type="line"/>
    </contour>
  </outline>
</glyph>
<glyph name="acute" format="2">
  <advance width="513"/>
  <unicode hex="00B4"/>
  <outline>
    <contour>
      <point x="427" y="694" type="line"/>
      <point x="344" y="694" type="line"/>
      <point x="210" y="527" type="line"/>
      <point x="275" y="527" type="line"/>
    </contour>
  </outline>
</glyph>
<glyph name="cedilla" format="2">
  <advance width="456"/>
  <unicode hex="00B8"/>
  <outline>
    <contour>
      <point x="289" y="-24" type="line"/>
      <point x="224" y="-24" type="line"/>
      <point x="148" y="-192" type="line"/>
      <point x="222" y="-192" type="line"/>
    </contour>
  </outline>
</glyph>
<glyph name="AE" format="2">
  <advance width="885"/>
  <unicode hex="00C6"/>
  <outline>
    <contour>
      <point x="29" y="0" type="line"/>
      <point x="109" y="0" type="line"/>
      <point x="200" y="219" type="line"/>
      <point x="431" y="219" type="line"/>
      <point x="431" y="0" type="line"/>
      <point x="842" y="0" type="line"/>
      <point x="842" y="76" type="line"/>
      <point x="526" y="76" type="line"/>
      <point x="526" y="328" type="line"/>
      <point x="799" y="328" type="line"/>
      <point x="799" y="393" type="line"/>
      <point x="526" y="393" type="line"/>
      <point x="526" y="626" type="line"/>
      <point x="828" y="626" type="line"/>
      <point x="828" y="694" type="line"/>
      <point x="320" y="694" type="line"/>
    </contour>
    <contour>
      <point x="225" y="278" type="line"/>
      <point x="371" y="626" type="line"/>
      <point x="431" y="626" type="line"/>
      <point x="431" y="278" type="line"/>
    </contour>
  </outline>
</glyph>
<glyph name="dotlessi" format="2">
  <advance width="245"/>
  <unicode hex="0131"/>
  <outline>
    <contour>
      <point x="162" y="444" type="line"/>
      <point x="82" y="444" type="line"/>
      <point x="82" y="0" type="line"/>
      <point x="162" y="0" type="line"/>
    </contour>
  </outline>
</glyph>
<glyph name="OE" format="2">
  <advance width="1000"/>
  <unicode hex="0152"/>
  <outline>
    <contour>
      <point x="579" y="328" type="line"/>
      <point x="913" y="328" type="line"/>
      <point x="913" y="393" type="line"/>
      <point x="579" y="393" type="line"/>
      <point x="579" y="626" type="line"/>
      <point x="617" y="626" type="line" smooth="yes"/>
      <point x="697" y="626"/>
      <point x="778" y="624"/>
      <point x="858" y="624" type="curve" smooth="yes"/>
      <point x="942" y="624" type="line"/>
      <point x="942" y="694" type="line"/>
      <point x="536" y="694" type="line" smooth="yes"/>
      <point x="525" y="694"/>
      <point x="501" y="694"/>
      <point x="449" y="705" type="curve" smooth="yes"/>
      <point x="410" y="714"/>
      <point x="387" y="716"/>
      <point x="370" y="716" type="curve" smooth="yes"/>
      <point x="189" y="716"/>
      <point x="29" y="556"/>
      <point x="29" y="344" type="curve" smooth="yes"/>
      <point x="29" y="134"/>
      <point x="191" y="-22"/>
      <point x="369" y="-22" type="curve" smooth="yes"/>
      <point x="382" y="-22"/>
      <point x="403" y="-22"/>
      <point x="449" y="-11" type="curve" smooth="yes"/>
      <point x="501" y="0"/>
      <point x="526" y="0"/>
      <point x="536" y="0" type="curve" smooth="yes"/>
      <point x="956" y="0" type="line"/>
      <point x="956" y="76" type="line"/>
      <point x="858" y="76" type="line" smooth="yes"/>
      <point x="765" y="76"/>
      <point x="672" y="74"/>
      <point x="579" y="74" type="curve"/>
    </contour>
    <contour>
      <point x="374" y="43" type="curve" smooth="yes"/>
      <point x="230" y="43"/>
      <point x="122" y="189"/>
      <point x="122" y="359" type="curve" smooth="yes"/>
      <point x="122" y="523"/>
      <point x="233" y="651"/>
      <point x="374" y="651" type="curve" smooth="yes"/>
      <point x="458" y="651"/>
      <point x="474" y="621"/>
      <point x="482" y="556" type="curve" smooth="yes"/>
      <point x="486" y="524"/>
      <point x="486" y="437"/>
      <point x="486" y="346" type="curve" smooth="yes"/>
      <point x="486" y="306"/>
      <point x="485" y="267"/>
      <point x="485" y="227" type="curve" smooth="yes"/>
      <point x="484" y="88"/>
      <point x="478" y="43"/>
    </contour>
  </outline>
</glyph>
<glyph name="circumflex" format="2">
  <advance width="513"/>
  <unicode hex="02C6"/>
  <outline>
    <contour>
      <point x="290" y="694" type="line"/>
      <point x="223" y="694" type="line"/>
      <point x="80" y="527" type="line"/>
      <point x="145" y="527" type="line"/>
      <point x="256" y="648" type="line"/>
      <point x="368" y="527" type="line"/>
      <point x="433" y="527" type="line"/>
    </contour>
  </outline>
</glyph>
<glyph name="dotaccent" format="2">
  <advance width="285"/>
  <unicode hex="02D9"/>
  <outline>
    <contour>
      <point x="190" y="684" type="line"/>
      <point x="94" y="684" type="line"/>
      <point x="94" y="588" type="line"/>
      <point x="190" y="588" type="line"/>
    </contour>
  </outline>
</glyph>
<glyph name="tilde" format="2">
  <advance width="513"/>
  <unicode hex="02DC"/>
  <outline>
    <contour>
      <point x="362" y="678" type="line"/>
      <point x="362" y="656"/>
      <point x="355" y="620"/>
      <point x="324" y="620" type="curve" smooth="yes"/>
      <point x="301" y="620"/>
      <point x="278" y="635"/>
      <point x="261" y="647" type="curve" smooth="yes"/>
      <point x="236" y="663"/>
      <point x="214" y="678"/>
      <point x="187" y="678" type="curve" smooth="yes"/>
      <point x="136" y="678"/>
      <point x="87" y="632"/>
      <point x="86" y="555" type="curve"/>
      <point x="151" y="555" type="line"/>
      <point x="151" y="577"/>
      <point x="158" y="613"/>
      <point x="189" y="613" type="curve" smooth="yes"/>
      <point x="212" y="613"/>
      <point x="235" y="598"/>
      <point x="252" y="586" type="curve" smooth="yes"/>
      <point x="277" y="570"/>
      <point x="299" y="555"/>
      <point x="326" y="555" type="curve" smooth="yes"/>
      <point x="377" y="555"/>
      <point x="426" y="601"/>
      <point x="427" y="678" type="curve"/>
    </contour>
  </outline>
</glyph>
<glyph name="Gamma" format="2">
  <advance width="560"/>
  <unicode hex="0393"/>
  <outline>
    <contour>
      <point x="191" y="623" type="line"/>
      <point x="218" y="623" type="line" smooth="yes"/>
      <point x="292" y="623"/>
      <point x="367" y="621"/>
      <point x="441" y="621" type="curve" smooth="yes"/>
      <point x="516" y="621" type="line"/>
      <point x="516" y="691" type="line"/>
      <point x="95" y="691" type="line"/>
      <point x="95" y="0" type="line"/>
      <point x="191" y="0" type="line"/>
    </contour>
  </outline>
</glyph>
<glyph name="Theta" format="2">
  <advance width="799"/>
  <unicode hex="0398"/>
  <outline>
    <contour>
      <point x="741" y="344" type="curve" smooth="yes"/>
      <point x="741" y="553"/>
      <point x="585" y="716"/>
      <point x="399" y="716" type="curve" smooth="yes"/>
      <point x="213" y="716"/>
      <point x="57" y="552"/>
      <point x="57" y="344" type="curve" smooth="yes"/>
      <point x="57" y="139"/>
      <point x="213" y="-22"/>
      <point x="399" y="-22" type="curve" smooth="yes"/>
      <point x="585" y="-22"/>
      <point x="741" y="139"/>
    </contour>
    <contour>
      <point x="399" y="45" type="curve" smooth="yes"/>
      <point x="265" y="45"/>
      <point x="147" y="165"/>
      <point x="147" y="344" type="curve" smooth="yes"/>
      <point x="147" y="529"/>
      <point x="266" y="651"/>
      <point x="399" y="651" type="curve" smooth="yes"/>
      <point x="532" y="651"/>
      <point x="651" y="528"/>
      <point x="651" y="344" type="curve" smooth="yes"/>
      <point x="651" y="164"/>
      <point x="533" y="45"/>
    </contour>
    <contour>
      <point x="205" y="393" type="line"/>
      <point x="205" y="303" type="line"/>
      <point x="593" y="303" type="line"/>
      <point x="593" y="393" type="line"/>
    </contour>
  </outline>
</glyph>
<glyph name="Lambda" format="2">
  <advance width="629"/>
  <unicode hex="039B"/>
  <outline>
    <contour>
      <point x="360" y="694" type="line"/>
      <point x="269" y="694" type="line"/>
      <point x="29" y="0" type="line"/>
      <point x="107" y="0" type="line"/>
      <point x="213" y="311" type="line" smooth="yes"/>
      <point x="231" y="363"/>
      <point x="248" y="416"/>
      <point x="264" y="469" type="curve" smooth="yes"/>
      <point x="298" y="581"/>
      <point x="300" y="600"/>
      <point x="302" y="617" type="curve"/>
      <point x="303" y="617" type="line"/>
      <point x="303" y="615"/>
      <point x="307" y="581"/>
      <point x="343" y="463" type="curve" smooth="yes"/>
      <point x="398" y="294" type="line"/>
      <point x="499" y="0" type="line"/>
      <point x="600" y="0" type="line"/>
    </contour>
  </outline>
</glyph>
<glyph name="Xi" format="2">
  <advance width="685"/>
  <unicode hex="039E"/>
  <outline>
    <contour>
      <point x="178" y="607" type="line" smooth="yes"/>
      <point x="232" y="607"/>
      <point x="288" y="608"/>
      <point x="342" y="608" type="curve" smooth="yes"/>
      <point x="396" y="608"/>
      <point x="452" y="607"/>
      <point x="506" y="607" type="curve" smooth="yes"/>
      <point x="635" y="607" type="line"/>
      <point x="635" y="688" type="line"/>
      <point x="49" y="688" type="line"/>
      <point x="49" y="607" type="line"/>
    </contour>
    <contour>
      <point x="509" y="81" type="line" smooth="yes"/>
      <point x="454" y="81"/>
      <point x="397" y="80"/>
      <point x="342" y="80" type="curve" smooth="yes"/>
      <point x="287" y="80"/>
      <point x="230" y="81"/>
      <point x="175" y="81" type="curve" smooth="yes"/>
      <point x="43" y="81" type="line"/>
      <point x="43" y="0" type="line"/>
      <point x="641" y="0" type="line"/>
      <point x="641" y="81" type="line"/>
    </contour>
    <contour>
      <point x="114" y="398" type="line"/>
      <point x="114" y="318" type="line"/>
      <point x="570" y="318" type="line"/>
      <point x="570" y="398" type="line"/>
    </contour>
  </outline>
</glyph>
<glyph name="Pi" format="2">
  <advance width="726"/>
  <unicode hex="03A0"/>
  <outline>
    <contour>
      <point x="631" y="691" type="line"/>
      <point x="95" y="691" type="line"/>
      <point x="95" y="0" type="line"/>
      <point x="191" y="0" type="line"/>
      <point x="191" y="626" type="line"/>
      <point x="535" y="626" type="line"/>
      <point x="535" y="0" type="line"/>
      <point x="631" y="0" type="line"/>
    </contour>
  </outline>
</glyph>
<glyph name="Sigma" format="2">
  <advance width="742"/>
  <unicode hex="03A3"/>
  <outline>
    <contour>
      <point x="409" y="347" type="line"/>
      <point x="181" y="626" type="line"/>
      <point x="242" y="626" type="line" smooth="yes"/>
      <point x="348" y="626"/>
      <point x="455" y="624"/>
      <point x="561" y="624" type="curve" smooth="yes"/>
      <point x="684" y="624" type="line"/>
      <point x="684" y="694" type="line"/>
      <point x="57" y="694" type="line"/>
      <point x="57" y="626" type="line"/>
      <point x="296" y="333" type="line"/>
      <point x="57" y="0" type="line"/>
      <point x="684" y="0" type="line"/>
      <point x="684" y="76" type="line"/>
      <point x="571" y="76" type="line" smooth="yes"/>
      <point x="472" y="76"/>
      <point x="371" y="74"/>
      <point x="272" y="74" type="curve" smooth="yes"/>
      <point x="212" y="74" type="line"/>
    </contour>
  </outline>
</glyph>
<glyph name="Upsilon" format="2">
  <advance width="799"/>
  <unicode hex="03A5"/>
  <outline>
    <contour>
      <point x="447" y="375" type="line" smooth="yes"/>
      <point x="447" y="570"/>
      <point x="495" y="644"/>
      <point x="576" y="644" type="curve" smooth="yes"/>
      <point x="615" y="644"/>
      <point x="655" y="615"/>
      <point x="658" y="555" type="curve"/>
      <point x="741" y="555" type="line"/>
      <point x="738" y="660"/>
      <point x="654" y="716"/>
      <point x="577" y="716" type="curve" smooth="yes"/>
      <point x="449" y="716"/>
      <point x="413" y="579"/>
      <point x="399" y="497" type="curve"/>
      <point x="398" y="497" type="line"/>
      <point x="381" y="600"/>
      <point x="339" y="716"/>
      <point x="221" y="716" type="curve" smooth="yes"/>
      <point x="143" y="716"/>
      <point x="60" y="660"/>
      <point x="57" y="555" type="curve"/>
      <point x="140" y="555" type="line"/>
      <point x="143" y="615"/>
      <point x="183" y="644"/>
      <point x="222" y="644" type="curve" smooth="yes"/>
      <point x="313" y="644"/>
      <point x="351" y="550"/>
      <point x="351" y="375" type="curve" smooth="yes"/>
      <point x="351" y="0" type="line"/>
      <point x="447" y="0" type="line"/>
    </contour>
  </outline>
</glyph>
<glyph name="Phi" format="2">
  <advance width="742"/>
  <unicode hex="03A6"/>
  <outline>
    <contour>
      <point x="413" y="694" type="line"/>
      <point x="323" y="694" type="line"/>
      <point x="323" y="587" type="line"/>
      <point x="170" y="570"/>
      <point x="57" y="466"/>
      <point x="57" y="347" type="curve" smooth="yes"/>
      <point x="57" y="228"/>
      <point x="170" y="124"/>
      <point x="323" y="107" type="curve"/>
      <point x="323" y="0" type="line"/>
      <point x="413" y="0" type="line"/>
      <point x="413" y="106" type="line"/>
      <point x="563" y="121"/>
      <point x="684" y="223"/>
      <point x="684" y="347" type="curve" smooth="yes"/>
      <point x="684" y="471"/>
      <point x="563" y="573"/>
      <point x="413" y="588" type="curve"/>
    </contour>
    <contour>
      <point x="323" y="172" type="line"/>
      <point x="201" y="192"/>
      <point x="150" y="271"/>
      <point x="150" y="347" type="curve" smooth="yes"/>
      <point x="150" y="423"/>
      <point x="201" y="502"/>
      <point x="323" y="522" type="curve"/>
    </contour>
    <contour>
      <point x="413" y="522" type="line"/>
      <point x="543" y="504"/>
      <point x="591" y="419"/>
      <point x="591" y="347" type="curve" smooth="yes"/>
      <point x="591" y="275"/>
      <point x="542" y="189"/>
      <point x="413" y="172" type="curve"/>
    </contour>
  </outline>
</glyph>
<glyph name="Psi" format="2">
  <advance width="799"/>
  <unicode hex="03A8"/>
  <outline>
    <contour>
      <point x="441" y="694" type="line"/>
      <point x="351" y="694" type="line"/>
      <point x="351" y="175" type="line"/>
      <point x="216" y="210"/>
      <point x="216" y="374"/>
      <point x="216" y="422" type="curve" smooth="yes"/>
      <point x="216" y="571"/>
      <point x="201" y="615"/>
      <point x="137" y="615" type="curve" smooth="yes"/>
      <point x="57" y="615" type="line"/>
      <point x="57" y="550" type="line"/>
      <point x="121" y="546"/>
      <point x="126" y="469"/>
      <point x="126" y="403" type="curve" smooth="yes"/>
      <point x="127" y="281"/>
      <point x="176" y="131"/>
      <point x="351" y="107" type="curve"/>
      <point x="351" y="0" type="line"/>
      <point x="441" y="0" type="line"/>
      <point x="441" y="107" type="line"/>
      <point x="670" y="137"/>
      <point x="672" y="362"/>
      <point x="672" y="426" type="curve" smooth="yes"/>
      <point x="672" y="463"/>
      <point x="678" y="546"/>
      <point x="741" y="550" type="curve"/>
      <point x="741" y="615" type="line"/>
      <point x="661" y="615" type="line" smooth="yes"/>
      <point x="618" y="615"/>
      <point x="582" y="605"/>
      <point x="582" y="440" type="curve" smooth="yes"/>
      <point x="582" y="366"/>
      <point x="581" y="210"/>
      <point x="441" y="175" type="curve"/>
    </contour>
  </outline>
</glyph>
<glyph name="emdash" format="2">
  <advance width="1027"/>
  <unicode hex="2014"/>
  <outline>
    <contour>
      <point x="1027" y="242" type="line"/>
      <point x="1027" y="307" type="line"/>
      <point x="0" y="307" type="line"/>
      <point x="0" y="242" type="line"/>
    </contour>
  </outline>
</glyph>
<glyph name="quoteleft" format="2">
  <advance width="285"/>
  <unicode hex="2018"/>
  <outline>
    <contour>
      <point x="186" y="694" type="line"/>
      <point x="143" y="694" type="line"/>
      <point x="99" y="566" type="line"/>
      <point x="99" y="481" type="line"/>
      <point x="185" y="481" type="line"/>
      <point x="185" y="567" type="line"/>
      <point x="159" y="567" type="line"/>
    </contour>
  </outline>
</glyph>
<glyph name="Omega" format="2">
  <advance width="742"/>
  <unicode hex="2126"/>
  <outline>
    <contour>
      <point x="695" y="75" type="line"/>
      <point x="608" y="75" type="line" smooth="yes"/>
      <point x="596" y="75"/>
      <point x="584" y="74"/>
      <point x="572" y="74" type="curve" smooth="yes"/>
      <point x="519" y="74" type="line"/>
      <point x="530" y="109"/>
      <point x="540" y="138"/>
      <point x="591" y="222" type="curve" smooth="yes"/>
      <point x="640" y="304"/>
      <point x="684" y="377"/>
      <point x="684" y="462" type="curve" smooth="yes"/>
      <point x="684" y="599"/>
      <point x="548" y="716"/>
      <point x="371" y="716" type="curve" smooth="yes"/>
      <point x="191" y="716"/>
      <point x="57" y="598"/>
      <point x="57" y="462" type="curve" smooth="yes"/>
      <point x="57" y="386"/>
      <point x="92" y="319"/>
      <point x="141" y="237" type="curve" smooth="yes"/>
      <point x="192" y="154"/>
      <point x="207" y="124"/>
      <point x="222" y="74" type="curve"/>
      <point x="169" y="74" type="line" smooth="yes"/>
      <point x="157" y="74"/>
      <point x="145" y="75"/>
      <point x="133" y="75" type="curve" smooth="yes"/>
      <point x="46" y="75" type="line"/>
      <point x="46" y="0" type="line"/>
      <point x="298" y="0" type="line"/>
      <point x="297" y="72"/>
      <point x="275" y="130"/>
      <point x="228" y="227" type="curve" smooth="yes"/>
      <point x="185" y="313"/>
      <point x="153" y="385"/>
      <point x="153" y="461" type="curve" smooth="yes"/>
      <point x="153" y="572"/>
      <point x="248" y="651"/>
      <point x="370" y="651" type="curve" smooth="yes"/>
      <point x="496" y="651"/>
      <point x="588" y="570"/>
      <point x="588" y="461" type="curve" smooth="yes"/>
      <point x="588" y="378"/>
      <point x="549" y="300"/>
      <point x="508" y="215" type="curve" smooth="yes"/>
      <point x="456" y="110"/>
      <point x="444" y="56"/>
      <point x="443" y="0" type="curve"/>
      <point x="695" y="0" type="line"/>
    </contour>
  </outline>
</glyph>
<glyph name="Delta" format="2">
  <advance width="856"/>
  <unicode hex="2206"/>
  <outline>
    <contour>
      <point x="475" y="694" type="line"/>
      <point x="380" y="694" type="line"/>
      <point x="43" y="0" type="line"/>
      <point x="812" y="0" type="line"/>
    </contour>
    <contour>
      <point x="310" y="385" type="line" smooth="yes"/>
      <point x="355" y="480"/>
      <point x="402" y="578"/>
      <point x="415" y="620" type="curve"/>
      <point x="428" y="577"/>
      <point x="481" y="466"/>
      <point x="525" y="375" type="curve" smooth="yes"/>
      <point x="662" y="90" type="line"/>
      <point x="169" y="90" type="line"/>
    </contour>
  </outline>
</glyph>
<glyph name="ff" format="2">
  <advance width="599"/>
  <outline>
    <contour>
      <point x="183" y="382" type="line"/>
      <point x="295" y="382" type="line"/>
      <point x="295" y="444" type="line"/>
      <point x="180" y="444" type="line"/>
      <point x="180" y="560" type="line" smooth="yes"/>
      <point x="180" y="631"/>
      <point x="244" y="640"/>
      <point x="274" y="640" type="curve" smooth="yes"/>
      <point x="284" y="640"/>
      <point x="315" y="640"/>
      <point x="357" y="623" type="curve"/>
      <point x="357" y="694" type="line"/>
      <point x="337" y="699"/>
      <point x="307" y="705"/>
      <point x="275" y="705" type="curve" smooth="yes"/>
      <point x="175" y="705"/>
      <point x="103" y="630"/>
      <point x="103" y="532" type="curve" smooth="yes"/>
      <point x="103" y="444" type="line"/>
      <point x="28" y="444" type="line"/>
      <point x="28" y="382" type="line"/>
      <point x="103" y="382" type="line"/>
      <point x="103" y="0" type="line"/>
      <point x="183" y="0" type="line"/>
    </contour>
    <contour>
      <point x="468" y="382" type="line"/>
      <point x="580" y="382" type="line"/>
      <point x="580" y="444" type="line"/>
      <point x="465" y="444" type="line"/>
      <point x="465" y="560" type="line" smooth="yes"/>
      <point x="465" y="631"/>
      <point x="529" y="640"/>
      <point x="559" y="640" type="curve" smooth="yes"/>
      <point x="569" y="640"/>
      <point x="600" y="640"/>
      <point x="642" y="623" type="curve"/>
      <point x="642" y="694" type="line"/>
      <point x="622" y="699"/>
      <point x="592" y="705"/>
      <point x="560" y="705" type="curve" smooth="yes"/>
      <point x="460" y="705"/>
      <point x="388" y="630"/>
      <point x="388" y="532" type="curve" smooth="yes"/>
      <point x="388" y="0" type="line"/>
      <point x="468" y="0" type="line"/>
    </contour>
  </outline>
</glyph>
<glyph name="suppress" format="2">
  <advance width="245"/>
  <outline>
    <contour>
      <point x="252" y="338" type="line"/>
      <point x="235" y="398" type="line"/>
      <point x="-8" y="325" type="line"/>
      <point x="9" y="265" type="line"/>
    </contour>
  </outline>
</glyph>
